<?xml version="1.0" standalone="no"?>
<!DOCTYPE svg PUBLIC "-//W3C//DTD SVG 20010904//EN"
 "http://www.w3.org/TR/2001/REC-SVG-20010904/DTD/svg10.dtd">
<svg version="1.0" xmlns="http://www.w3.org/2000/svg"
 width="500.000000pt" height="500.000000pt" viewBox="0 0 500.000000 500.000000"
 preserveAspectRatio="xMidYMid meet">

<g transform="translate(0.000000,500.000000) scale(0.100000,-0.100000)"
fill="#000000" stroke="none">
<path d="M1903 4096 c-124 -30 -247 -123 -305 -232 -56 -103 -58 -130 -58
-726 0 -302 3 -548 8 -548 4 0 103 96 219 213 l213 212 2 325 c3 309 4 325 22
328 13 3 63 -40 172 -149 l154 -154 127 125 127 125 -105 -113 c-57 -62 -151
-167 -209 -232 -58 -66 -184 -208 -280 -317 -171 -193 -294 -338 -395 -464
-27 -34 -59 -71 -69 -82 -42 -44 -134 -154 -164 -197 -17 -25 -58 -76 -91
-115 -34 -38 -61 -74 -61 -79 0 -5 -11 -24 -25 -42 -25 -33 -25 -35 -23 -206
l3 -173 730 728 c402 400 734 727 740 727 5 0 88 -78 184 -174 192 -190 232
-217 355 -242 202 -43 412 60 506 248 48 97 51 136 48 515 -3 336 -4 350 -26
405 -84 209 -292 331 -506 298 -131 -20 -181 -53 -378 -249 l-177 -176 -179
176 c-147 146 -189 181 -243 206 -109 52 -210 64 -316 39z m1386 -456 c4 -14
4 -149 1 -300 -4 -234 -7 -275 -20 -278 -8 -1 -84 66 -170 153 l-155 155 150
150 c155 156 182 173 194 120z"/>
</g>
</svg>
